<svg width="250" height="250" viewBox="0 0 250 250" fill="none" xmlns="http://www.w3.org/2000/svg">
<rect width="250" height="250" rx="125" fill="#572753"/>
<path d="M198.131 42.5L166.388 48.9934L188.519 78.4637L204.431 75.1337L198.131 42.5ZM142.641 53.8219L126.729 57.0686L148.941 86.4556L164.772 83.2089L142.641 53.8219ZM103.063 61.8138L87.1514 65.227L109.363 94.614L125.194 91.3673L103.063 61.8138ZM63.4048 70.1387L55.4892 71.7205C51.2922 72.5848 47.5995 75.1304 45.222 78.7984C42.8444 82.4664 41.9762 86.9569 42.8082 91.2841L45.9583 107.601L85.536 99.5257L63.4048 70.1387ZM45.9583 107.601V190.85C45.9583 195.266 47.6602 199.501 50.6897 202.623C53.7192 205.746 57.8281 207.5 62.1124 207.5H191.346C200.311 207.5 207.5 200.091 207.5 190.85V107.601H45.9583Z" fill="#0F1035"/>
<path d="M147.097 134.682C147.097 150.382 129.191 149.316 129.191 160.171V160.229C129.191 161.482 128.149 162.497 126.864 162.497H117.094C115.808 162.497 114.767 161.482 114.767 160.229V159.589C114.767 142.823 130.484 143.889 130.484 136.039C130.484 132.647 127.898 130.611 123.62 130.611C120.14 130.611 116.584 132.094 113.352 135.124C112.523 135.9 111.228 135.949 110.322 135.259L103.897 130.363C102.814 129.538 102.689 127.974 103.646 127.013C109.01 121.625 115.981 118.4 125.212 118.4C139.835 118.4 147.097 126.056 147.097 134.682ZM131.18 180.135C131.18 184.981 127.201 188.955 122.128 188.955C117.154 188.955 113.075 184.981 113.075 180.135C113.075 175.29 117.154 171.316 122.128 171.316C127.201 171.316 131.18 175.29 131.18 180.135Z" fill="#ECC748"/>
</svg>
